<?xml version="1.0" encoding="UTF-8"?>
<svg xmlns="http://www.w3.org/2000/svg" viewBox="0 0 357.25 194.21">
  <defs>
    <style>.a5012e88-f834-4258-b1c0-ebef5e112d5d,.ffa481cb-7993-4920-b148-085634569c39{fill:#fff;}.a5012e88-f834-4258-b1c0-ebef5e112d5d,.f1259731-2698-4fa7-8650-09f42b19caf3{fill-rule:evenodd;}.f1259731-2698-4fa7-8650-09f42b19caf3{fill:#231f20;}</style>
  </defs>
  <title>Asset 1</title>
  <g id="ede43a58-cc69-48ee-81d0-6fe5e8794f33" data-name="Layer 2">
    <g id="638320ea-74d7-4dee-833d-ca6136280638" data-name="Layer 1">
      <path class="a5012e88-f834-4258-b1c0-ebef5e112d5d" d="M68.05,81.39a21.37,21.37,0,0,1,.52-2.59l4.14-16.22,8.46-1.5L76.9,77.92a12.52,12.52,0,0,0-.32,1.49,10,10,0,0,0-.11,1.45,3.65,3.65,0,0,0,1.21,3,4.26,4.26,0,0,0,3.5.55,6.66,6.66,0,0,0,4.06-2.33,9.48,9.48,0,0,0,1.47-2.28,18.5,18.5,0,0,0,1.08-3.21L92.26,59.1l8.46-1.5L95.93,76.46a24.66,24.66,0,0,1-4.7,9.93,15.49,15.49,0,0,1-4.83,3.84,22.38,22.38,0,0,1-6.3,2.06q-5.87,1-9-1.2t-3.17-7.29a18.58,18.58,0,0,1,.17-2.4"></path>
      <polygon class="a5012e88-f834-4258-b1c0-ebef5e112d5d" points="18.99 102.57 10.57 104.06 16.75 79.92 7.68 81.53 9.67 73.78 36.12 69.08 34.18 76.82 25.12 78.43 18.99 102.57"></polygon>
      <polygon class="a5012e88-f834-4258-b1c0-ebef5e112d5d" points="53.81 96.38 53.08 91.08 41.43 93.15 37.8 99.23 28.7 100.84 49.72 66.44 57.91 64.99 62.62 94.82 53.81 96.38"></polygon>
      <path class="a5012e88-f834-4258-b1c0-ebef5e112d5d" d="M98.28,124.11a8.33,8.33,0,0,1,2.16,6.15A15.72,15.72,0,0,1,99,136.72a17.25,17.25,0,0,1-4.29,5.75,28.23,28.23,0,0,1-7.29,4.62,43.28,43.28,0,0,1-10.34,3.05l-26.6,4.73,13.78-54.16,21.33-3.79a32.87,32.87,0,0,1,8.83-.57,13.33,13.33,0,0,1,5.72,1.72,7.68,7.68,0,0,1,3.08,3.44,11.17,11.17,0,0,1,.91,4.53,14.49,14.49,0,0,1-3,9,20.25,20.25,0,0,1-8.47,6.31,10.4,10.4,0,0,1,5.61,2.81"></path>
      <polygon class="a5012e88-f834-4258-b1c0-ebef5e112d5d" points="147.56 125.44 144.34 138.2 102.86 145.57 116.64 91.42 157.75 84.11 154.45 96.88 127.48 101.68 125.36 109.89 149.84 105.53 146.83 117.37 122.35 121.72 120.15 130.31 147.56 125.44"></polygon>
      <path class="a5012e88-f834-4258-b1c0-ebef5e112d5d" d="M183.44,131.25l-6.82-14.45-6.3,1.12-4.18,16.4-14.29,2.54,13.78-54.16L185,79.27a34.45,34.45,0,0,1,10.77-.51,13.55,13.55,0,0,1,6.87,2.77,10,10,0,0,1,3,4.23,15.94,15.94,0,0,1,1,5.63,21,21,0,0,1-3.72,12q-3.71,5.5-11.63,9l7.91,16Z"></path>
      <polygon class="a5012e88-f834-4258-b1c0-ebef5e112d5d" points="251.63 87.44 248.62 99.28 224.14 103.63 221.95 112.22 249.36 107.35 246.13 120.11 204.65 127.48 218.43 73.32 259.54 66.01 256.24 78.79 229.28 83.58 227.15 91.79 251.63 87.44"></polygon>
      <path class="a5012e88-f834-4258-b1c0-ebef5e112d5d" d="M296.92,101.37a21.5,21.5,0,0,1-4.51,6.45,26.45,26.45,0,0,1-6.92,4.89,32.34,32.34,0,0,1-8.79,2.85,33.9,33.9,0,0,1-13.6-.06,22.57,22.57,0,0,1-10.22-5.16L262,99.18q7.55,5.68,15.83,4.2a8.87,8.87,0,0,0,4.18-1.78,3.91,3.91,0,0,0,1.61-3.1,2.58,2.58,0,0,0-.32-1.31,2.86,2.86,0,0,0-1.29-1,17.6,17.6,0,0,0-2.6-.94q-1.65-.48-4.36-1a43.41,43.41,0,0,1-5.53-1.49,14.22,14.22,0,0,1-4.18-2.21,9.34,9.34,0,0,1-2.68-3.33,11.13,11.13,0,0,1-1-4.85,17.32,17.32,0,0,1,1.65-7.39,21.82,21.82,0,0,1,4.54-6.39,27.09,27.09,0,0,1,6.89-4.85,31.7,31.7,0,0,1,8.68-2.83,31.24,31.24,0,0,1,12.06-.07,22.13,22.13,0,0,1,9,4l-8.79,11.46a20.78,20.78,0,0,0-6.27-3,16,16,0,0,0-7.3-.26,8.14,8.14,0,0,0-4.07,1.79,3.86,3.86,0,0,0-1.5,2.89A2.12,2.12,0,0,0,277,79a3.35,3.35,0,0,0,1.28.92,15.76,15.76,0,0,0,2.6.87q1.68.44,4.32,1a36.83,36.83,0,0,1,5.39,1.48,15.63,15.63,0,0,1,4.21,2.24,9.3,9.3,0,0,1,2.75,3.39,11.21,11.21,0,0,1,1,4.92,18.23,18.23,0,0,1-1.61,7.56"></path>
      <polygon class="f1259731-2698-4fa7-8650-09f42b19caf3" points="70.63 28.69 62.04 29.91 62.04 40.05 70.63 38.83 70.63 28.69"></polygon>
      <polygon class="f1259731-2698-4fa7-8650-09f42b19caf3" points="82.67 26.99 74.07 28.21 74.07 38.34 82.67 37.13 82.67 26.99"></polygon>
      <polygon class="f1259731-2698-4fa7-8650-09f42b19caf3" points="62.04 53.04 70.63 51.83 70.63 41.69 62.04 42.91 62.04 53.04"></polygon>
      <polygon class="f1259731-2698-4fa7-8650-09f42b19caf3" points="74.07 51.34 82.67 50.12 82.67 39.98 74.07 41.2 74.07 51.34"></polygon>
      <polygon class="f1259731-2698-4fa7-8650-09f42b19caf3" points="43.43 169.53 36.08 194.21 350.5 138.02 357.25 113.76 43.43 169.53"></polygon>
      <path class="f1259731-2698-4fa7-8650-09f42b19caf3" d="M334,69.37l9.83-25.86c2.6-10.73-11-14.45-14.1-3.86L325.23,67l4.39,1.2Zm1.06-29.87a2.15,2.15,0,1,1,1.51,2.66,2.15,2.15,0,0,1-1.51-2.66"></path>
      <path class="f1259731-2698-4fa7-8650-09f42b19caf3" d="M339,87.82l1.53-5.68c-4-2.91-7-6.86-6.85-11.85L329,69l-4-1.1c-1.58,3-5.77,5.88-12.52,6.54L311,80.15Z"></path>
      <path class="f1259731-2698-4fa7-8650-09f42b19caf3" d="M338.65,102.56a12.63,12.63,0,0,1-2.58,6.31,21,21,0,0,0,8.6-1.78c2.72-1.34,4.28-3.79,3.19-5.67-2.45-4.25-8.87-4.07-9.21,1.15m7-2.63c3.65,3.61-.19,7-4.77,7.61,2.78-1.72,5.16-3.71,4.77-7.61"></path>
      <path class="f1259731-2698-4fa7-8650-09f42b19caf3" d="M336.72,105.51a16.18,16.18,0,0,0,1.06-4.8,18.69,18.69,0,0,1,.57-11.33l-27.71-7.25s-5.7,16.64,2.38,29.81l4.38-.61a21,21,0,0,1-3-16.1c1,9.1,3.92,13.49,6.48,15.65l2.3-.28c-1.83-1.89-5-6-4.19-11.71a16.24,16.24,0,0,0,8.25,11.21l6.39-.74a6.45,6.45,0,0,0,2-1.82,10.78,10.78,0,0,1-2.65-5.41,9.76,9.76,0,0,0,3.76,3.38"></path>
      <polygon class="f1259731-2698-4fa7-8650-09f42b19caf3" points="213.13 63.98 187.66 44.79 77.16 1.73 157.1 73.32 213.13 63.98"></polygon>
      <polygon class="f1259731-2698-4fa7-8650-09f42b19caf3" points="14.23 65.77 27.46 62.8 72.95 13.27 142.45 75.93 154.11 73.85 72.16 0 41.3 35.04 41.3 25.95 44.27 25.95 44.27 17.95 27.87 17.95 27.87 25.95 30.19 25.95 30.19 47.65 14.23 65.77"></polygon>
      <polygon class="ffa481cb-7993-4920-b148-085634569c39" points="55.69 184.7 53.85 185.03 55.17 180.76 52 181.34 50.68 185.6 48.84 185.93 51.95 175.87 53.78 175.54 52.51 179.69 55.69 179.12 56.96 174.97 58.79 174.64 55.69 184.7"></polygon>
      <path class="ffa481cb-7993-4920-b148-085634569c39" d="M68.59,177.64c-.59,1.93-1,3.08-2,4.1a5.58,5.58,0,0,1-2.89,1.6c-1.87.34-2.82-.72-2.65-2.22a15.35,15.35,0,0,1,.56-2.23c.59-1.94,1-3.09,2-4.1a5.58,5.58,0,0,1,2.87-1.6c1.87-.33,2.84.72,2.67,2.22a16.29,16.29,0,0,1-.56,2.24m-2.42-2.85a2.56,2.56,0,0,0-1.41.83,7.36,7.36,0,0,0-1.28,2.94,14.46,14.46,0,0,0-.53,2.09.88.88,0,0,0,1.11,1.08,2.54,2.54,0,0,0,1.41-.83A7.35,7.35,0,0,0,66.76,178a14.56,14.56,0,0,0,.51-2.1c.1-.86-.43-1.2-1.1-1.09"></path>
      <polygon class="ffa481cb-7993-4920-b148-085634569c39" points="79.96 180.35 78.13 180.68 79.98 174.73 77.08 178.76 75.84 178.98 75.15 175.57 73.31 181.54 71.48 181.87 74.58 171.81 76.3 171.51 77.1 176.43 81.28 170.61 83.07 170.29 79.96 180.35"></polygon>
      <polygon class="ffa481cb-7993-4920-b148-085634569c39" points="93.49 169.97 89.16 170.75 88.38 173.28 92.11 172.61 91.61 174.25 87.88 174.91 87.07 177.53 91.48 176.74 90.98 178.38 84.72 179.49 87.83 169.44 93.99 168.33 93.49 169.97"></polygon>
      <polygon class="ffa481cb-7993-4920-b148-085634569c39" points="109.4 175.07 107.57 175.4 109.42 169.45 106.51 173.49 105.28 173.71 104.59 170.29 102.75 176.27 100.92 176.59 104.02 166.54 105.73 166.23 106.54 171.16 110.71 165.34 112.51 165.01 109.4 175.07"></polygon>
      <path class="ffa481cb-7993-4920-b148-085634569c39" d="M119.57,173.25v-1.73l-3.34.6-1.13,1.94-2,.35,6.5-10.67,1.46-.26.33,9.44Zm0-6.83-2.42,4.09,2.46-.44Z"></path>
      <polygon class="ffa481cb-7993-4920-b148-085634569c39" points="126.97 171.92 125.14 172.25 128.25 162.19 130.08 161.87 126.97 171.92"></polygon>
      <polygon class="ffa481cb-7993-4920-b148-085634569c39" points="138.93 169.78 137.37 170.06 135.51 164.46 133.56 170.74 131.72 171.07 134.83 161.02 136.38 160.74 138.26 166.35 140.2 160.05 142.03 159.73 138.93 169.78"></polygon>
      <polygon class="ffa481cb-7993-4920-b148-085634569c39" points="152.3 159.45 149.87 159.88 147.29 168.28 145.46 168.61 148.04 160.22 145.56 160.66 146.06 159 152.8 157.79 152.3 159.45"></polygon>
      <polygon class="ffa481cb-7993-4920-b148-085634569c39" points="162.55 157.59 158.22 158.37 157.44 160.9 161.17 160.23 160.67 161.87 156.94 162.54 156.14 165.16 160.54 164.36 160.04 166 153.79 167.12 156.89 157.06 163.05 155.96 162.55 157.59"></polygon>
      <polygon class="ffa481cb-7993-4920-b148-085634569c39" points="171.57 163.93 170.01 164.21 168.14 158.61 166.2 164.9 164.37 165.22 167.47 155.16 169.02 154.88 170.91 160.51 172.84 154.2 174.67 153.88 171.57 163.93"></polygon>
      <path class="ffa481cb-7993-4920-b148-085634569c39" d="M181.74,162.11v-1.73l-3.34.6-1.13,1.93-2,.35,6.5-10.66,1.46-.26.34,9.44Zm0-6.83-2.41,4.08,2.45-.44Z"></path>
      <polygon class="ffa481cb-7993-4920-b148-085634569c39" points="194.51 159.82 192.95 160.1 191.08 154.5 189.14 160.78 187.31 161.11 190.41 151.06 191.96 150.78 193.84 156.39 195.78 150.09 197.61 149.76 194.51 159.82"></polygon>
      <path class="ffa481cb-7993-4920-b148-085634569c39" d="M206.12,151.09c.08-.78-.23-1.34-1.11-1.19a2.45,2.45,0,0,0-1.4.8,7.33,7.33,0,0,0-1.31,3,13.73,13.73,0,0,0-.53,2.1c-.09.82.42,1.2,1.17,1.07a2.92,2.92,0,0,0,2-1.75l1.89-.34a5.79,5.79,0,0,1-4.21,3.68c-1.89.34-2.9-.66-2.72-2.21a14.29,14.29,0,0,1,.56-2.23c.59-1.94.95-3.07,1.94-4.1a5.38,5.38,0,0,1,2.87-1.6c2-.36,2.86.77,2.67,2.46Z"></path>
      <polygon class="ffa481cb-7993-4920-b148-085634569c39" points="218.8 147.51 214.47 148.29 213.69 150.82 217.41 150.15 216.92 151.79 213.19 152.46 212.38 155.07 216.79 154.28 216.29 155.91 210.04 157.04 213.14 146.98 219.3 145.88 218.8 147.51"></polygon>
      <path class="ffa481cb-7993-4920-b148-085634569c39" d="M233.31,150.93l1.07,1.74-2.08.37-.45-.73a5.72,5.72,0,0,1-2.76,1.38c-1.31.24-2.61-.14-2.41-1.93s1.33-2.68,2.71-3.67a2.43,2.43,0,0,1-.42-1.59,3.55,3.55,0,0,1,3.1-3c1.93-.34,2.07,1,2,1.64a3.63,3.63,0,0,1-1.61,2.26l-.86.65,1,1.71a4.79,4.79,0,0,0,1-1.82l1.65-.29a7.76,7.76,0,0,1-2,3.29M230,149.17a3.08,3.08,0,0,0-1.54,2c-.08.67.34,1.06,1,.93a3.5,3.5,0,0,0,1.68-1Zm1.83-4.21a1.4,1.4,0,0,0-1.1,1.24,1.35,1.35,0,0,0,.27.86l.48-.36c.52-.39.87-.73.92-1.19s-.17-.62-.57-.55"></path>
      <path class="ffa481cb-7993-4920-b148-085634569c39" d="M250.29,145.79l.88,3.88-2,.36-.7-3.72-1.39.24-1.27,4.07L244,151l3.1-10.06,3.47-.62c2-.36,2.55.75,2.39,2.12a4.6,4.6,0,0,1-2.64,3.39m-.23-3.86-1.66.3-.86,2.78,1.66-.3a2.28,2.28,0,0,0,1.89-1.89c.08-.69-.28-1-1-.9"></path>
      <polygon class="ffa481cb-7993-4920-b148-085634569c39" points="263.97 139.42 259.64 140.2 258.86 142.72 262.59 142.05 262.09 143.69 258.36 144.36 257.55 146.98 261.96 146.19 261.46 147.82 255.21 148.94 258.31 138.89 264.47 137.78 263.97 139.42"></polygon>
      <polygon class="ffa481cb-7993-4920-b148-085634569c39" points="272.99 145.75 271.43 146.03 269.56 140.43 267.62 146.72 265.79 147.04 268.89 136.99 270.44 136.71 272.33 142.33 274.26 136.03 276.09 135.7 272.99 145.75"></polygon>
      <path class="ffa481cb-7993-4920-b148-085634569c39" d="M285.89,138.7c-.59,1.93-1,3.08-2,4.1a5.55,5.55,0,0,1-2.89,1.6c-1.87.34-2.82-.72-2.65-2.22a16,16,0,0,1,.56-2.23c.59-1.94,1-3.09,2-4.1a5.48,5.48,0,0,1,2.87-1.59c1.87-.34,2.84.71,2.66,2.21a14.59,14.59,0,0,1-.55,2.24m-2.41-2.85a2.55,2.55,0,0,0-1.41.83,7.41,7.41,0,0,0-1.28,2.94,14.32,14.32,0,0,0-.53,2.09c-.1.86.45,1.2,1.11,1.08a2.54,2.54,0,0,0,1.41-.83,7.37,7.37,0,0,0,1.28-2.93,13.88,13.88,0,0,0,.51-2.1c.1-.86-.43-1.2-1.1-1.08"></path>
      <polygon class="ffa481cb-7993-4920-b148-085634569c39" points="292.07 142.34 290.63 142.6 290.62 133.09 292.43 132.77 292.35 139.09 296.26 132.09 298.23 131.73 292.07 142.34"></polygon>
      <path class="ffa481cb-7993-4920-b148-085634569c39" d="M303.73,140.25v-1.73l-3.34.6L299.25,141l-2,.35,6.5-10.67,1.46-.26.33,9.44Zm0-6.83-2.41,4.09,2.46-.44Z"></path>
      <polygon class="ffa481cb-7993-4920-b148-085634569c39" points="317.04 129.93 314.61 130.36 312.02 138.76 310.19 139.09 312.78 130.69 310.29 131.13 310.8 129.48 317.54 128.27 317.04 129.93"></polygon>
      <polygon class="ffa481cb-7993-4920-b148-085634569c39" points="320.36 137.27 318.53 137.59 321.63 127.54 323.46 127.21 320.36 137.27"></polygon>
      <path class="ffa481cb-7993-4920-b148-085634569c39" d="M333.25,130.21c-.59,1.93-1,3.08-2,4.1a5.53,5.53,0,0,1-2.89,1.59c-1.87.34-2.82-.72-2.65-2.22a15.7,15.7,0,0,1,.56-2.23c.59-1.94,1-3.09,2-4.11a5.52,5.52,0,0,1,2.87-1.6c1.87-.33,2.85.72,2.67,2.22a15.56,15.56,0,0,1-.55,2.24m-2.41-2.85a2.54,2.54,0,0,0-1.41.83,7.32,7.32,0,0,0-1.28,2.94,14.28,14.28,0,0,0-.53,2.1c-.1.85.44,1.2,1.11,1.08a2.56,2.56,0,0,0,1.41-.83,7.49,7.49,0,0,0,1.28-2.93,14,14,0,0,0,.51-2.1c.1-.86-.43-1.2-1.1-1.08"></path>
      <polygon class="ffa481cb-7993-4920-b148-085634569c39" points="343.35 133.15 341.79 133.43 339.92 127.83 337.97 134.11 336.14 134.44 339.24 124.38 340.8 124.1 342.68 129.72 344.61 123.42 346.44 123.09 343.35 133.15"></polygon>
      <path class="f1259731-2698-4fa7-8650-09f42b19caf3" d="M79.53,128.94l-9.82,1.74-2.57,9.91,10.77-1.91a11.58,11.58,0,0,0,5.83-2.54,5.64,5.64,0,0,0,2.09-4.29q0-4-6.3-2.91"></path>
      <polygon class="f1259731-2698-4fa7-8650-09f42b19caf3" points="45.34 86.16 52.07 84.96 50.99 76.41 45.34 86.16"></polygon>
      <path class="f1259731-2698-4fa7-8650-09f42b19caf3" d="M88.36,109.34q-1.43-.77-4.73-.19l-8.87,1.58-2.35,9.43,9.6-1.71A11.72,11.72,0,0,0,87.81,116a5.37,5.37,0,0,0,2-4.16,2.66,2.66,0,0,0-1.43-2.53"></path>
      <path class="f1259731-2698-4fa7-8650-09f42b19caf3" d="M298.22,81.89l13.59-17.72-4.23-3.26a27.68,27.68,0,0,0-11.16-5,37,37,0,0,0-14.2,0A37.48,37.48,0,0,0,272,59.23a33.29,33.29,0,0,0-6.46,4.33l1-4L213.67,69,210,83.44a15.33,15.33,0,0,0-4.16-5.69,19,19,0,0,0-9.6-4,39.64,39.64,0,0,0-12.54.54l-18.88,3.36h0l-52.92,9.41L108.35,101c-.14-.42-.22-.85-.4-1.25a13,13,0,0,0-5.17-5.86,18.79,18.79,0,0,0-8.07-2.52c-.25,0-.52,0-.77,0,.38-.39.81-.71,1.16-1.13a30,30,0,0,0,5.8-12.06l6.85-26.95L88.19,54.63h0L68,58.22,64.28,72.67,62.13,59,54.47,60.4h0l-.54.1L46,61.91,41.42,69.4l1.7-6.76L4.93,69.42,0,88.63,9.07,87,2.9,111.17l14.59-2.59h0l23.43-4.17,3.63-6.08,3.58-.64.73,5.31,9.44-1.68L42.86,162l34.92-6.21a49.21,49.21,0,0,0,11.66-3.46,35.11,35.11,0,0,0,6.92-4.2l-1.16,4.57,49-8.71h0l26.07-4.64,3.68-14.46,6,12.74,17-3,53.26-9.47,2-7.94a29.08,29.08,0,0,0,9.28,3.89,34.8,34.8,0,0,0,7.82.85,45.77,45.77,0,0,0,8-.74,38,38,0,0,0,10.29-3.35,32,32,0,0,0,8.34-5.9,27.15,27.15,0,0,0,5.62-8.06,23.6,23.6,0,0,0,2.08-9.75,16.52,16.52,0,0,0-1.52-7.23,14.7,14.7,0,0,0-3.93-5M67.73,81.72a21.37,21.37,0,0,1,.52-2.59L72.4,62.9l8.46-1.5L76.58,78.25a12.52,12.52,0,0,0-.32,1.49,10,10,0,0,0-.11,1.45,3.65,3.65,0,0,0,1.21,3,4.26,4.26,0,0,0,3.5.55,6.66,6.66,0,0,0,4.06-2.33,9.48,9.48,0,0,0,1.47-2.28A18.5,18.5,0,0,0,87.46,77l4.49-17.54,8.46-1.5L95.61,76.78a24.66,24.66,0,0,1-4.7,9.93,15.49,15.49,0,0,1-4.83,3.84,22.38,22.38,0,0,1-6.3,2.06q-5.87,1-9-1.2t-3.17-7.29a18.58,18.58,0,0,1,.17-2.4M18.67,102.9l-8.41,1.49,6.17-24.15L7.36,81.86l2-7.75,26.45-4.7-1.94,7.74L24.8,78.76ZM29.24,83.44l4.05-.72L26.67,93.55ZM53.49,96.71l-.73-5.31L41.11,93.47l-3.63,6.08-9.1,1.62,21-34.4,8.2-1.46,4.7,29.83ZM98,124.44a8.33,8.33,0,0,1,2.16,6.15,15.72,15.72,0,0,1-1.39,6.45,17.25,17.25,0,0,1-4.29,5.75,28.23,28.23,0,0,1-7.29,4.62,43.28,43.28,0,0,1-10.34,3.05l-26.6,4.73L64,101l21.33-3.79a32.87,32.87,0,0,1,8.83-.57,13.33,13.33,0,0,1,5.72,1.72,7.68,7.68,0,0,1,3.08,3.44,11.17,11.17,0,0,1,.91,4.53,14.49,14.49,0,0,1-3,9,20.25,20.25,0,0,1-8.47,6.31A10.4,10.4,0,0,1,98,124.44m5.4-3.86-.38,1.48c-.15-.2-.26-.42-.41-.61.29-.27.52-.59.79-.88m43.89,5.19L144,138.53l-41.48,7.37,13.78-54.16,41.11-7.31-3.3,12.77-27,4.79L125,110.21l24.48-4.35-3,11.84L122,122l-2.2,8.59Zm35.88,5.81-6.82-14.45-6.3,1.12-4.18,16.4-14.29,2.54L165.31,83l19.35-3.44a34.45,34.45,0,0,1,10.77-.51,13.55,13.55,0,0,1,6.87,2.77,10,10,0,0,1,3,4.23,15.94,15.94,0,0,1,1,5.63,21,21,0,0,1-3.72,12q-3.71,5.5-11.63,9l7.91,16Zm17.52-11.35-2.55-5.17a32.8,32.8,0,0,0,4.78-3.59Zm50.67-32.46-3,11.84L223.82,104l-2.2,8.59L249,107.67l-3.22,12.76-41.48,7.37,13.77-54.16,41.12-7.31-3.3,12.78-27,4.79-2.13,8.21Zm8.48,5.54-6.17,7.51L256.86,88a14.19,14.19,0,0,0,.59,1.77,14.81,14.81,0,0,0,2.34,3.49m36.81,8.39a21.5,21.5,0,0,1-4.51,6.45,26.45,26.45,0,0,1-6.92,4.89,32.34,32.34,0,0,1-8.79,2.85,33.9,33.9,0,0,1-13.6-.06,22.57,22.57,0,0,1-10.22-5.16l9.16-11.16q7.55,5.68,15.83,4.2a8.87,8.87,0,0,0,4.18-1.78,3.91,3.91,0,0,0,1.61-3.1,2.58,2.58,0,0,0-.32-1.31,2.86,2.86,0,0,0-1.29-1,17.6,17.6,0,0,0-2.6-.94q-1.65-.48-4.36-1A43.41,43.41,0,0,1,269.23,93a14.22,14.22,0,0,1-4.18-2.21,9.34,9.34,0,0,1-2.68-3.33,11.13,11.13,0,0,1-1-4.85,17.32,17.32,0,0,1,1.65-7.39,21.82,21.82,0,0,1,4.54-6.39A27.09,27.09,0,0,1,274.5,64a31.7,31.7,0,0,1,8.68-2.83,31.24,31.24,0,0,1,12.06-.07,22.13,22.13,0,0,1,9,4L295.43,76.6a20.78,20.78,0,0,0-6.27-3,16,16,0,0,0-7.3-.26,8.14,8.14,0,0,0-4.07,1.79A3.86,3.86,0,0,0,276.3,78a2.12,2.12,0,0,0,.36,1.3,3.35,3.35,0,0,0,1.28.92,15.76,15.76,0,0,0,2.6.87q1.68.44,4.32,1a36.83,36.83,0,0,1,5.39,1.48,15.63,15.63,0,0,1,4.21,2.24,9.3,9.3,0,0,1,2.75,3.39,11.21,11.21,0,0,1,1,4.92,18.23,18.23,0,0,1-1.61,7.56"></path>
      <path class="f1259731-2698-4fa7-8650-09f42b19caf3" d="M190.33,92.71q-1.76-1.47-6.3-.66l-7.69,1.36L173,106.49,181.1,105a15.86,15.86,0,0,0,7.69-3.3A7.38,7.38,0,0,0,191.65,96a4.28,4.28,0,0,0-1.32-3.26m-5.11,5a10.47,10.47,0,0,1-4.89,2l.42-1.62,4.24-.75.68-.11a4.28,4.28,0,0,1-.45.44"></path>
    </g>
  </g>
</svg>
